# xmcd
#
# Track frame offsets:
#	150
#	3238
#	19452
#	28534
#	38272
#	54417
#	69242
#	81075
#	86366
#	102621
#	111544
#	120202
#	132761
#	144663
#	149965
#	165478
#	174813
#	191522
#	200817
#	211735
#	214665
#	227240
#	240694
#	254790
#	267273
#	286775
#	299305
#
# Disc length: 4306 seconds
#
# Revision: 0
# Processed by: cddbd v1.5.2PL0 Copyright (c) Steve Scherf et al.
# Submitted via: EasyCDDAExtractor 16.0.6.1
#
DISCID=8710d01b
DTITLE=Συλλογικός δίσκος - Θεσσαλικός κύκλος-Γ. Μαρκόπουλος, στ Κ.Βίρβου
DYEAR=1974
DGENRE=Λαϊκή
TTITLE0=Τσιτσάνης Βασίλης - Πρόλογος
TTITLE1=Σιδηρόπουλος Παύλος - Εισαγωγή, ντελάλης
TTITLE2=Άνευ ερμηνευτού - Ροζαμούντα
TTITLE3=Χαλκιάς Λάκης - Αλεπούδες, κόρακες
TTITLE4=Χαλκιάς Λάκης - Ο σιδηρόδρομος
TTITLE5=Χαλκιάς Λάκης-Νικολάου Λιζέττα - Τα φαντάσματα
TTITLE6=Μαρκόπουλος Γιάννης - Ο πάτερ Γυμνάσιος
TTITLE7=Χορωδία - Ο κλεφτοκοτάς
TTITLE8=Μοσχολιού Βίκυ - Ο αρκουδιάρης
TTITLE9=Σιδηρόπουλος Παύλος-Νικολάου Λιζέττα - Το τηλέφωνο
TTITLE10=Σιδηρόπουλος Παύλος - Η Βασίλω
TTITLE11=Νικολάου Λιζέττα - Το παζάρι
TTITLE12=Μοσχολιού Βίκυ - Η προξενήτρα
TTITLE13=Χαλκιάς Λάκης-χορωδία - Ζωή στα κατσικομούλαρά μας
TTITLE14=Νικολάου Λιζέττα-Χαλκιάς Λάκης - Ο Αντύπας
TTITLE15=Χαλκιάς Λάκης - Ο δάσκαλος
TTITLE16=Γαργανουράκης Χαράλαμπος - Αν ήσουν άντρας, τσιφλικά
TTITLE17=Άνευ ερμηνευτού - Χορός καπετανέϊκος
TTITLE18=Σιδηρόπουλος Παύλος-Χαλκιάς Λάκης - Το γράμμα
TTITLE19=Γαργανουράκης Χαράλαμπος-χορωδία - Ο Μαυρομίχος
TTITLE20=Μοσχολιού Βίκυ - Νά 'βγαινα μάννα μ' στο κλαρί
TTITLE21=Γαργανουράκης Χαράλαμπος - Ο φτεροπόδαρος
TTITLE22=Ορχήστρα και φωνές - Νύχτα στον κάμπο
TTITLE23=Χαλκιάς Λάκης - Ο Σταύρος ο Σταχτοφωτιάς
TTITLE24=Νικολάου Λιζέττα - Βγήκε ο ήλιος
TTITLE25=Μοσχολιού Βίκυ - Ο λόγος (Παραμύθι)
TTITLE26=Γαργανουράκης Χαράλαμπος - Το άλογο
EXTD=
EXTT0=
EXTT1=
EXTT2=
EXTT3=
EXTT4=
EXTT5=
EXTT6=
EXTT7=
EXTT8=
EXTT9=
EXTT10=
EXTT11=
EXTT12=
EXTT13=
EXTT14=
EXTT15=
EXTT16=
EXTT17=
EXTT18=
EXTT19=
EXTT20=
EXTT21=
EXTT22=
EXTT23=
EXTT24=
EXTT25=
EXTT26=
PLAYORDER=
